<svg width="24" height="24" viewBox="0 0 24 24" fill="none" xmlns="http://www.w3.org/2000/svg">
<path d="M9 14.0996C9.49706 14.0996 9.90039 14.5029 9.90039 15V19.75C9.90039 20.2471 9.49706 20.6504 9 20.6504C8.50294 20.6504 8.09961 20.2471 8.09961 19.75V15.9004H4.25C3.75294 15.9004 3.34961 15.4971 3.34961 15C3.34961 14.5029 3.75294 14.0996 4.25 14.0996H9ZM19.75 14.0996C20.2471 14.0996 20.6504 14.5029 20.6504 15C20.6504 15.4971 20.2471 15.9004 19.75 15.9004H15.9004V19.75C15.9004 20.2471 15.4971 20.6504 15 20.6504C14.5029 20.6504 14.0996 20.2471 14.0996 19.75V15C14.0996 14.5029 14.5029 14.0996 15 14.0996H19.75ZM9 3.34961C9.49706 3.34961 9.90039 3.75294 9.90039 4.25V9C9.90039 9.49706 9.49706 9.90039 9 9.90039H4.25C3.75294 9.90039 3.34961 9.49706 3.34961 9C3.34961 8.50294 3.75294 8.09961 4.25 8.09961H8.09961V4.25C8.09961 3.75294 8.50294 3.34961 9 3.34961ZM15 3.34961C15.4971 3.34961 15.9004 3.75294 15.9004 4.25V8.09961H19.75C20.2471 8.09961 20.6504 8.50294 20.6504 9C20.6504 9.49706 20.2471 9.90039 19.75 9.90039H15C14.5029 9.90039 14.0996 9.49706 14.0996 9V4.25C14.0996 3.75294 14.5029 3.34961 15 3.34961Z" fill="currentColor"/>
</svg>
